<mxfile host="app.diagrams.net" modified="2023-03-11T19:37:05.426Z" agent="5.0 (Macintosh; Intel Mac OS X 10_15_7) AppleWebKit/537.36 (KHTML, like Gecko) Chrome/111.0.0.0 Safari/537.36" etag="ZUKW4ftLYHEju25tUpeX" version="21.0.6" type="github">
  <diagram name="Page-1" id="vG4r1ZU1F1tFnuL-1ezL">
    <mxGraphModel dx="1754" dy="1991" grid="1" gridSize="10" guides="1" tooltips="1" connect="1" arrows="1" fold="1" page="1" pageScale="1" pageWidth="850" pageHeight="1100" math="0" shadow="0">
      <root>
        <mxCell id="0" />
        <mxCell id="1" parent="0" />
        <mxCell id="JHE3BNfb4ep6dm02MJn9-4" value="" style="edgeStyle=orthogonalEdgeStyle;rounded=0;orthogonalLoop=1;jettySize=auto;html=1;strokeWidth=1;fontSize=18;" edge="1" parent="1" source="JHE3BNfb4ep6dm02MJn9-1" target="JHE3BNfb4ep6dm02MJn9-3">
          <mxGeometry relative="1" as="geometry" />
        </mxCell>
        <mxCell id="JHE3BNfb4ep6dm02MJn9-1" value="create sheet" style="rounded=0;whiteSpace=wrap;html=1;strokeWidth=1;fontSize=18;" vertex="1" parent="1">
          <mxGeometry x="365" y="40" width="120" height="60" as="geometry" />
        </mxCell>
        <mxCell id="JHE3BNfb4ep6dm02MJn9-13" value="" style="edgeStyle=orthogonalEdgeStyle;rounded=0;orthogonalLoop=1;jettySize=auto;html=1;strokeWidth=1;fontSize=18;" edge="1" parent="1" source="JHE3BNfb4ep6dm02MJn9-3" target="JHE3BNfb4ep6dm02MJn9-12">
          <mxGeometry relative="1" as="geometry" />
        </mxCell>
        <mxCell id="JHE3BNfb4ep6dm02MJn9-3" value="sheet form&amp;nbsp;" style="whiteSpace=wrap;html=1;rounded=0;strokeWidth=1;fontSize=18;" vertex="1" parent="1">
          <mxGeometry x="365" y="270" width="120" height="60" as="geometry" />
        </mxCell>
        <mxCell id="JHE3BNfb4ep6dm02MJn9-18" value="" style="edgeStyle=orthogonalEdgeStyle;rounded=0;orthogonalLoop=1;jettySize=auto;html=1;fontSize=18;" edge="1" parent="1" source="JHE3BNfb4ep6dm02MJn9-12" target="JHE3BNfb4ep6dm02MJn9-17">
          <mxGeometry relative="1" as="geometry" />
        </mxCell>
        <mxCell id="JHE3BNfb4ep6dm02MJn9-12" value="store sheet" style="whiteSpace=wrap;html=1;rounded=0;strokeWidth=1;fontSize=18;" vertex="1" parent="1">
          <mxGeometry x="365" y="490" width="120" height="60" as="geometry" />
        </mxCell>
        <mxCell id="JHE3BNfb4ep6dm02MJn9-26" style="edgeStyle=orthogonalEdgeStyle;rounded=0;orthogonalLoop=1;jettySize=auto;html=1;entryX=0;entryY=0.5;entryDx=0;entryDy=0;fontSize=18;" edge="1" parent="1" source="JHE3BNfb4ep6dm02MJn9-17" target="JHE3BNfb4ep6dm02MJn9-24">
          <mxGeometry relative="1" as="geometry" />
        </mxCell>
        <mxCell id="JHE3BNfb4ep6dm02MJn9-17" value="&lt;ul style=&quot;font-size: 18px;&quot;&gt;&lt;li style=&quot;font-size: 18px;&quot;&gt;DX content {with files}&lt;/li&gt;&lt;li style=&quot;font-size: 18px;&quot;&gt;RX {List Ids for drags} foreach has note&lt;/li&gt;&lt;li style=&quot;font-size: 18px;&quot;&gt;Radiology {type , list of file , note}&lt;/li&gt;&lt;li style=&quot;font-size: 18px;&quot;&gt;ultrasound {type , list of file , note}&lt;/li&gt;&lt;li style=&quot;font-size: 18px;&quot;&gt;Lab {list of {Test , Result , N/V}}&lt;/li&gt;&lt;li style=&quot;border-color: var(--border-color); font-size: 18px;&quot;&gt;other test {type , list of file , note}&lt;/li&gt;&lt;/ul&gt;" style="shape=process;whiteSpace=wrap;html=1;backgroundOutline=1;rounded=0;align=left;fontSize=18;" vertex="1" parent="1">
          <mxGeometry x="215" y="630" width="420" height="200" as="geometry" />
        </mxCell>
        <mxCell id="JHE3BNfb4ep6dm02MJn9-92" style="edgeStyle=orthogonalEdgeStyle;rounded=0;orthogonalLoop=1;jettySize=auto;html=1;entryX=-0.007;entryY=0.113;entryDx=0;entryDy=0;entryPerimeter=0;fontSize=18;" edge="1" parent="1" source="JHE3BNfb4ep6dm02MJn9-24" target="JHE3BNfb4ep6dm02MJn9-88">
          <mxGeometry relative="1" as="geometry" />
        </mxCell>
        <mxCell id="JHE3BNfb4ep6dm02MJn9-24" value="&lt;font style=&quot;font-size: 18px;&quot;&gt;save&lt;/font&gt;" style="triangle;whiteSpace=wrap;html=1;align=left;rounded=0;fontSize=18;" vertex="1" parent="1">
          <mxGeometry x="460" y="940" width="70" height="80" as="geometry" />
        </mxCell>
        <mxCell id="JHE3BNfb4ep6dm02MJn9-37" value="DX" style="swimlane;fontStyle=0;childLayout=stackLayout;horizontal=1;startSize=30;horizontalStack=0;resizeParent=1;resizeParentMax=0;resizeLast=0;collapsible=1;marginBottom=0;whiteSpace=wrap;html=1;fontSize=18;" vertex="1" parent="1">
          <mxGeometry x="1050" y="170" width="140" height="120" as="geometry" />
        </mxCell>
        <mxCell id="JHE3BNfb4ep6dm02MJn9-109" value="id" style="text;strokeColor=none;fillColor=none;align=left;verticalAlign=middle;spacingLeft=4;spacingRight=4;overflow=hidden;points=[[0,0.5],[1,0.5]];portConstraint=eastwest;rotatable=0;whiteSpace=wrap;html=1;fontSize=18;" vertex="1" parent="JHE3BNfb4ep6dm02MJn9-37">
          <mxGeometry y="30" width="140" height="30" as="geometry" />
        </mxCell>
        <mxCell id="JHE3BNfb4ep6dm02MJn9-110" value="update_id" style="text;strokeColor=none;fillColor=none;align=left;verticalAlign=middle;spacingLeft=4;spacingRight=4;overflow=hidden;points=[[0,0.5],[1,0.5]];portConstraint=eastwest;rotatable=0;whiteSpace=wrap;html=1;fontSize=18;" vertex="1" parent="JHE3BNfb4ep6dm02MJn9-37">
          <mxGeometry y="60" width="140" height="30" as="geometry" />
        </mxCell>
        <mxCell id="JHE3BNfb4ep6dm02MJn9-38" value="content" style="text;strokeColor=none;fillColor=none;align=left;verticalAlign=middle;spacingLeft=4;spacingRight=4;overflow=hidden;points=[[0,0.5],[1,0.5]];portConstraint=eastwest;rotatable=0;whiteSpace=wrap;html=1;fontSize=18;" vertex="1" parent="JHE3BNfb4ep6dm02MJn9-37">
          <mxGeometry y="90" width="140" height="30" as="geometry" />
        </mxCell>
        <mxCell id="JHE3BNfb4ep6dm02MJn9-42" value="RX" style="swimlane;fontStyle=0;childLayout=stackLayout;horizontal=1;startSize=30;horizontalStack=0;resizeParent=1;resizeParentMax=0;resizeLast=0;collapsible=1;marginBottom=0;whiteSpace=wrap;html=1;fontSize=18;" vertex="1" parent="1">
          <mxGeometry x="1460" y="160" width="140" height="210" as="geometry" />
        </mxCell>
        <mxCell id="JHE3BNfb4ep6dm02MJn9-113" value="id" style="text;strokeColor=none;fillColor=none;align=left;verticalAlign=middle;spacingLeft=4;spacingRight=4;overflow=hidden;points=[[0,0.5],[1,0.5]];portConstraint=eastwest;rotatable=0;whiteSpace=wrap;html=1;fontSize=18;" vertex="1" parent="JHE3BNfb4ep6dm02MJn9-42">
          <mxGeometry y="30" width="140" height="30" as="geometry" />
        </mxCell>
        <mxCell id="JHE3BNfb4ep6dm02MJn9-112" value="update_id" style="text;strokeColor=none;fillColor=none;align=left;verticalAlign=middle;spacingLeft=4;spacingRight=4;overflow=hidden;points=[[0,0.5],[1,0.5]];portConstraint=eastwest;rotatable=0;whiteSpace=wrap;html=1;fontSize=18;" vertex="1" parent="JHE3BNfb4ep6dm02MJn9-42">
          <mxGeometry y="60" width="140" height="30" as="geometry" />
        </mxCell>
        <mxCell id="JHE3BNfb4ep6dm02MJn9-149" value="drag_id" style="text;strokeColor=none;fillColor=none;align=left;verticalAlign=middle;spacingLeft=4;spacingRight=4;overflow=hidden;points=[[0,0.5],[1,0.5]];portConstraint=eastwest;rotatable=0;whiteSpace=wrap;html=1;fontSize=18;" vertex="1" parent="JHE3BNfb4ep6dm02MJn9-42">
          <mxGeometry y="90" width="140" height="30" as="geometry" />
        </mxCell>
        <mxCell id="JHE3BNfb4ep6dm02MJn9-157" value="count" style="text;strokeColor=none;fillColor=none;align=left;verticalAlign=middle;spacingLeft=4;spacingRight=4;overflow=hidden;points=[[0,0.5],[1,0.5]];portConstraint=eastwest;rotatable=0;whiteSpace=wrap;html=1;fontSize=18;" vertex="1" parent="JHE3BNfb4ep6dm02MJn9-42">
          <mxGeometry y="120" width="140" height="30" as="geometry" />
        </mxCell>
        <mxCell id="JHE3BNfb4ep6dm02MJn9-213" value="isAccepted" style="text;strokeColor=none;fillColor=none;align=left;verticalAlign=middle;spacingLeft=4;spacingRight=4;overflow=hidden;points=[[0,0.5],[1,0.5]];portConstraint=eastwest;rotatable=0;whiteSpace=wrap;html=1;fontSize=18;" vertex="1" parent="JHE3BNfb4ep6dm02MJn9-42">
          <mxGeometry y="150" width="140" height="30" as="geometry" />
        </mxCell>
        <mxCell id="JHE3BNfb4ep6dm02MJn9-43" value="pharmacy_id" style="text;strokeColor=none;fillColor=none;align=left;verticalAlign=middle;spacingLeft=4;spacingRight=4;overflow=hidden;points=[[0,0.5],[1,0.5]];portConstraint=eastwest;rotatable=0;whiteSpace=wrap;html=1;fontSize=18;" vertex="1" parent="JHE3BNfb4ep6dm02MJn9-42">
          <mxGeometry y="180" width="140" height="30" as="geometry" />
        </mxCell>
        <mxCell id="JHE3BNfb4ep6dm02MJn9-48" value="Radiology" style="swimlane;fontStyle=0;childLayout=stackLayout;horizontal=1;startSize=30;horizontalStack=0;resizeParent=1;resizeParentMax=0;resizeLast=0;collapsible=1;marginBottom=0;whiteSpace=wrap;html=1;fontSize=18;" vertex="1" parent="1">
          <mxGeometry x="1900" y="170" width="140" height="210" as="geometry" />
        </mxCell>
        <mxCell id="JHE3BNfb4ep6dm02MJn9-117" value="id" style="text;strokeColor=none;fillColor=none;align=left;verticalAlign=middle;spacingLeft=4;spacingRight=4;overflow=hidden;points=[[0,0.5],[1,0.5]];portConstraint=eastwest;rotatable=0;whiteSpace=wrap;html=1;fontSize=18;" vertex="1" parent="JHE3BNfb4ep6dm02MJn9-48">
          <mxGeometry y="30" width="140" height="30" as="geometry" />
        </mxCell>
        <mxCell id="JHE3BNfb4ep6dm02MJn9-118" value="update_id" style="text;strokeColor=none;fillColor=none;align=left;verticalAlign=middle;spacingLeft=4;spacingRight=4;overflow=hidden;points=[[0,0.5],[1,0.5]];portConstraint=eastwest;rotatable=0;whiteSpace=wrap;html=1;fontSize=18;" vertex="1" parent="JHE3BNfb4ep6dm02MJn9-48">
          <mxGeometry y="60" width="140" height="30" as="geometry" />
        </mxCell>
        <mxCell id="JHE3BNfb4ep6dm02MJn9-49" value="type" style="text;strokeColor=none;fillColor=none;align=left;verticalAlign=middle;spacingLeft=4;spacingRight=4;overflow=hidden;points=[[0,0.5],[1,0.5]];portConstraint=eastwest;rotatable=0;whiteSpace=wrap;html=1;fontSize=18;" vertex="1" parent="JHE3BNfb4ep6dm02MJn9-48">
          <mxGeometry y="90" width="140" height="30" as="geometry" />
        </mxCell>
        <mxCell id="JHE3BNfb4ep6dm02MJn9-51" value="note" style="text;strokeColor=none;fillColor=none;align=left;verticalAlign=middle;spacingLeft=4;spacingRight=4;overflow=hidden;points=[[0,0.5],[1,0.5]];portConstraint=eastwest;rotatable=0;whiteSpace=wrap;html=1;fontSize=18;" vertex="1" parent="JHE3BNfb4ep6dm02MJn9-48">
          <mxGeometry y="120" width="140" height="30" as="geometry" />
        </mxCell>
        <mxCell id="JHE3BNfb4ep6dm02MJn9-214" value="isAccepted" style="text;strokeColor=none;fillColor=none;align=left;verticalAlign=middle;spacingLeft=4;spacingRight=4;overflow=hidden;points=[[0,0.5],[1,0.5]];portConstraint=eastwest;rotatable=0;whiteSpace=wrap;html=1;fontSize=18;" vertex="1" parent="JHE3BNfb4ep6dm02MJn9-48">
          <mxGeometry y="150" width="140" height="30" as="geometry" />
        </mxCell>
        <mxCell id="JHE3BNfb4ep6dm02MJn9-150" value="radiology_id" style="text;strokeColor=none;fillColor=none;align=left;verticalAlign=middle;spacingLeft=4;spacingRight=4;overflow=hidden;points=[[0,0.5],[1,0.5]];portConstraint=eastwest;rotatable=0;whiteSpace=wrap;html=1;fontSize=18;" vertex="1" parent="JHE3BNfb4ep6dm02MJn9-48">
          <mxGeometry y="180" width="140" height="30" as="geometry" />
        </mxCell>
        <mxCell id="JHE3BNfb4ep6dm02MJn9-52" value="ultrasound" style="swimlane;fontStyle=0;childLayout=stackLayout;horizontal=1;startSize=30;horizontalStack=0;resizeParent=1;resizeParentMax=0;resizeLast=0;collapsible=1;marginBottom=0;whiteSpace=wrap;html=1;fontSize=18;" vertex="1" parent="1">
          <mxGeometry x="910" y="1240" width="140" height="210" as="geometry" />
        </mxCell>
        <mxCell id="JHE3BNfb4ep6dm02MJn9-121" value="id" style="text;strokeColor=none;fillColor=none;align=left;verticalAlign=middle;spacingLeft=4;spacingRight=4;overflow=hidden;points=[[0,0.5],[1,0.5]];portConstraint=eastwest;rotatable=0;whiteSpace=wrap;html=1;fontSize=18;" vertex="1" parent="JHE3BNfb4ep6dm02MJn9-52">
          <mxGeometry y="30" width="140" height="30" as="geometry" />
        </mxCell>
        <mxCell id="JHE3BNfb4ep6dm02MJn9-122" value="update_id" style="text;strokeColor=none;fillColor=none;align=left;verticalAlign=middle;spacingLeft=4;spacingRight=4;overflow=hidden;points=[[0,0.5],[1,0.5]];portConstraint=eastwest;rotatable=0;whiteSpace=wrap;html=1;fontSize=18;" vertex="1" parent="JHE3BNfb4ep6dm02MJn9-52">
          <mxGeometry y="60" width="140" height="30" as="geometry" />
        </mxCell>
        <mxCell id="JHE3BNfb4ep6dm02MJn9-53" value="type" style="text;strokeColor=none;fillColor=none;align=left;verticalAlign=middle;spacingLeft=4;spacingRight=4;overflow=hidden;points=[[0,0.5],[1,0.5]];portConstraint=eastwest;rotatable=0;whiteSpace=wrap;html=1;fontSize=18;" vertex="1" parent="JHE3BNfb4ep6dm02MJn9-52">
          <mxGeometry y="90" width="140" height="30" as="geometry" />
        </mxCell>
        <mxCell id="JHE3BNfb4ep6dm02MJn9-54" value="note" style="text;strokeColor=none;fillColor=none;align=left;verticalAlign=middle;spacingLeft=4;spacingRight=4;overflow=hidden;points=[[0,0.5],[1,0.5]];portConstraint=eastwest;rotatable=0;whiteSpace=wrap;html=1;fontSize=18;" vertex="1" parent="JHE3BNfb4ep6dm02MJn9-52">
          <mxGeometry y="120" width="140" height="30" as="geometry" />
        </mxCell>
        <mxCell id="JHE3BNfb4ep6dm02MJn9-152" value="user_id" style="text;strokeColor=none;fillColor=none;align=left;verticalAlign=middle;spacingLeft=4;spacingRight=4;overflow=hidden;points=[[0,0.5],[1,0.5]];portConstraint=eastwest;rotatable=0;whiteSpace=wrap;html=1;fontSize=18;" vertex="1" parent="JHE3BNfb4ep6dm02MJn9-52">
          <mxGeometry y="150" width="140" height="30" as="geometry" />
        </mxCell>
        <mxCell id="JHE3BNfb4ep6dm02MJn9-215" value="isAccepted" style="text;strokeColor=none;fillColor=none;align=left;verticalAlign=middle;spacingLeft=4;spacingRight=4;overflow=hidden;points=[[0,0.5],[1,0.5]];portConstraint=eastwest;rotatable=0;whiteSpace=wrap;html=1;fontSize=18;" vertex="1" parent="JHE3BNfb4ep6dm02MJn9-52">
          <mxGeometry y="180" width="140" height="30" as="geometry" />
        </mxCell>
        <mxCell id="JHE3BNfb4ep6dm02MJn9-56" value="Lab" style="swimlane;fontStyle=0;childLayout=stackLayout;horizontal=1;startSize=30;horizontalStack=0;resizeParent=1;resizeParentMax=0;resizeLast=0;collapsible=1;marginBottom=0;whiteSpace=wrap;html=1;fontSize=18;" vertex="1" parent="1">
          <mxGeometry x="1430" y="1240" width="140" height="210" as="geometry" />
        </mxCell>
        <mxCell id="JHE3BNfb4ep6dm02MJn9-123" value="id" style="text;strokeColor=none;fillColor=none;align=left;verticalAlign=middle;spacingLeft=4;spacingRight=4;overflow=hidden;points=[[0,0.5],[1,0.5]];portConstraint=eastwest;rotatable=0;whiteSpace=wrap;html=1;fontSize=18;" vertex="1" parent="JHE3BNfb4ep6dm02MJn9-56">
          <mxGeometry y="30" width="140" height="30" as="geometry" />
        </mxCell>
        <mxCell id="JHE3BNfb4ep6dm02MJn9-124" value="update_id" style="text;strokeColor=none;fillColor=none;align=left;verticalAlign=middle;spacingLeft=4;spacingRight=4;overflow=hidden;points=[[0,0.5],[1,0.5]];portConstraint=eastwest;rotatable=0;whiteSpace=wrap;html=1;fontSize=18;" vertex="1" parent="JHE3BNfb4ep6dm02MJn9-56">
          <mxGeometry y="60" width="140" height="30" as="geometry" />
        </mxCell>
        <mxCell id="JHE3BNfb4ep6dm02MJn9-57" value="labtest_id" style="text;strokeColor=none;fillColor=none;align=left;verticalAlign=middle;spacingLeft=4;spacingRight=4;overflow=hidden;points=[[0,0.5],[1,0.5]];portConstraint=eastwest;rotatable=0;whiteSpace=wrap;html=1;fontSize=18;" vertex="1" parent="JHE3BNfb4ep6dm02MJn9-56">
          <mxGeometry y="90" width="140" height="30" as="geometry" />
        </mxCell>
        <mxCell id="JHE3BNfb4ep6dm02MJn9-58" value="Result" style="text;strokeColor=none;fillColor=none;align=left;verticalAlign=middle;spacingLeft=4;spacingRight=4;overflow=hidden;points=[[0,0.5],[1,0.5]];portConstraint=eastwest;rotatable=0;whiteSpace=wrap;html=1;fontSize=18;" vertex="1" parent="JHE3BNfb4ep6dm02MJn9-56">
          <mxGeometry y="120" width="140" height="30" as="geometry" />
        </mxCell>
        <mxCell id="JHE3BNfb4ep6dm02MJn9-59" value="N/V" style="text;strokeColor=none;fillColor=none;align=left;verticalAlign=middle;spacingLeft=4;spacingRight=4;overflow=hidden;points=[[0,0.5],[1,0.5]];portConstraint=eastwest;rotatable=0;whiteSpace=wrap;html=1;fontSize=18;" vertex="1" parent="JHE3BNfb4ep6dm02MJn9-56">
          <mxGeometry y="150" width="140" height="30" as="geometry" />
        </mxCell>
        <mxCell id="JHE3BNfb4ep6dm02MJn9-217" value="isAccepted" style="text;strokeColor=none;fillColor=none;align=left;verticalAlign=middle;spacingLeft=4;spacingRight=4;overflow=hidden;points=[[0,0.5],[1,0.5]];portConstraint=eastwest;rotatable=0;whiteSpace=wrap;html=1;fontSize=18;" vertex="1" parent="JHE3BNfb4ep6dm02MJn9-56">
          <mxGeometry y="180" width="140" height="30" as="geometry" />
        </mxCell>
        <mxCell id="JHE3BNfb4ep6dm02MJn9-60" value="other test" style="swimlane;fontStyle=0;childLayout=stackLayout;horizontal=1;startSize=30;horizontalStack=0;resizeParent=1;resizeParentMax=0;resizeLast=0;collapsible=1;marginBottom=0;whiteSpace=wrap;html=1;fontSize=18;" vertex="1" parent="1">
          <mxGeometry x="1990" y="1240" width="140" height="210" as="geometry" />
        </mxCell>
        <mxCell id="JHE3BNfb4ep6dm02MJn9-126" value="id" style="text;strokeColor=none;fillColor=none;align=left;verticalAlign=middle;spacingLeft=4;spacingRight=4;overflow=hidden;points=[[0,0.5],[1,0.5]];portConstraint=eastwest;rotatable=0;whiteSpace=wrap;html=1;fontSize=18;" vertex="1" parent="JHE3BNfb4ep6dm02MJn9-60">
          <mxGeometry y="30" width="140" height="30" as="geometry" />
        </mxCell>
        <mxCell id="JHE3BNfb4ep6dm02MJn9-125" value="update_id" style="text;strokeColor=none;fillColor=none;align=left;verticalAlign=middle;spacingLeft=4;spacingRight=4;overflow=hidden;points=[[0,0.5],[1,0.5]];portConstraint=eastwest;rotatable=0;whiteSpace=wrap;html=1;fontSize=18;" vertex="1" parent="JHE3BNfb4ep6dm02MJn9-60">
          <mxGeometry y="60" width="140" height="30" as="geometry" />
        </mxCell>
        <mxCell id="JHE3BNfb4ep6dm02MJn9-61" value="type" style="text;strokeColor=none;fillColor=none;align=left;verticalAlign=middle;spacingLeft=4;spacingRight=4;overflow=hidden;points=[[0,0.5],[1,0.5]];portConstraint=eastwest;rotatable=0;whiteSpace=wrap;html=1;fontSize=18;" vertex="1" parent="JHE3BNfb4ep6dm02MJn9-60">
          <mxGeometry y="90" width="140" height="30" as="geometry" />
        </mxCell>
        <mxCell id="JHE3BNfb4ep6dm02MJn9-63" value="note" style="text;strokeColor=none;fillColor=none;align=left;verticalAlign=middle;spacingLeft=4;spacingRight=4;overflow=hidden;points=[[0,0.5],[1,0.5]];portConstraint=eastwest;rotatable=0;whiteSpace=wrap;html=1;fontSize=18;" vertex="1" parent="JHE3BNfb4ep6dm02MJn9-60">
          <mxGeometry y="120" width="140" height="30" as="geometry" />
        </mxCell>
        <mxCell id="JHE3BNfb4ep6dm02MJn9-151" value="doctor_id" style="text;strokeColor=none;fillColor=none;align=left;verticalAlign=middle;spacingLeft=4;spacingRight=4;overflow=hidden;points=[[0,0.5],[1,0.5]];portConstraint=eastwest;rotatable=0;whiteSpace=wrap;html=1;fontSize=18;" vertex="1" parent="JHE3BNfb4ep6dm02MJn9-60">
          <mxGeometry y="150" width="140" height="30" as="geometry" />
        </mxCell>
        <mxCell id="JHE3BNfb4ep6dm02MJn9-216" value="isAccepted" style="text;strokeColor=none;fillColor=none;align=left;verticalAlign=middle;spacingLeft=4;spacingRight=4;overflow=hidden;points=[[0,0.5],[1,0.5]];portConstraint=eastwest;rotatable=0;whiteSpace=wrap;html=1;fontSize=18;" vertex="1" parent="JHE3BNfb4ep6dm02MJn9-60">
          <mxGeometry y="180" width="140" height="30" as="geometry" />
        </mxCell>
        <mxCell id="JHE3BNfb4ep6dm02MJn9-69" value="updates" style="swimlane;fontStyle=0;childLayout=stackLayout;horizontal=1;startSize=30;horizontalStack=0;resizeParent=1;resizeParentMax=0;resizeLast=0;collapsible=1;marginBottom=0;whiteSpace=wrap;html=1;fontSize=18;" vertex="1" parent="1">
          <mxGeometry x="910" y="920" width="140" height="150" as="geometry" />
        </mxCell>
        <mxCell id="JHE3BNfb4ep6dm02MJn9-108" value="id" style="text;strokeColor=none;fillColor=none;align=left;verticalAlign=middle;spacingLeft=4;spacingRight=4;overflow=hidden;points=[[0,0.5],[1,0.5]];portConstraint=eastwest;rotatable=0;whiteSpace=wrap;html=1;fontSize=18;" vertex="1" parent="JHE3BNfb4ep6dm02MJn9-69">
          <mxGeometry y="30" width="140" height="30" as="geometry" />
        </mxCell>
        <mxCell id="JHE3BNfb4ep6dm02MJn9-70" value="sheet_id" style="text;strokeColor=none;fillColor=none;align=left;verticalAlign=middle;spacingLeft=4;spacingRight=4;overflow=hidden;points=[[0,0.5],[1,0.5]];portConstraint=eastwest;rotatable=0;whiteSpace=wrap;html=1;fontSize=18;" vertex="1" parent="JHE3BNfb4ep6dm02MJn9-69">
          <mxGeometry y="60" width="140" height="30" as="geometry" />
        </mxCell>
        <mxCell id="JHE3BNfb4ep6dm02MJn9-71" value="age" style="text;strokeColor=none;fillColor=none;align=left;verticalAlign=middle;spacingLeft=4;spacingRight=4;overflow=hidden;points=[[0,0.5],[1,0.5]];portConstraint=eastwest;rotatable=0;whiteSpace=wrap;html=1;fontSize=18;" vertex="1" parent="JHE3BNfb4ep6dm02MJn9-69">
          <mxGeometry y="90" width="140" height="30" as="geometry" />
        </mxCell>
        <mxCell id="JHE3BNfb4ep6dm02MJn9-72" value="weight" style="text;strokeColor=none;fillColor=none;align=left;verticalAlign=middle;spacingLeft=4;spacingRight=4;overflow=hidden;points=[[0,0.5],[1,0.5]];portConstraint=eastwest;rotatable=0;whiteSpace=wrap;html=1;fontSize=18;" vertex="1" parent="JHE3BNfb4ep6dm02MJn9-69">
          <mxGeometry y="120" width="140" height="30" as="geometry" />
        </mxCell>
        <mxCell id="JHE3BNfb4ep6dm02MJn9-93" style="edgeStyle=orthogonalEdgeStyle;rounded=0;orthogonalLoop=1;jettySize=auto;html=1;entryX=-0.014;entryY=0.171;entryDx=0;entryDy=0;entryPerimeter=0;fontSize=18;" edge="1" parent="1" source="JHE3BNfb4ep6dm02MJn9-88" target="JHE3BNfb4ep6dm02MJn9-69">
          <mxGeometry relative="1" as="geometry">
            <Array as="points">
              <mxPoint x="640" y="920" />
              <mxPoint x="810" y="920" />
              <mxPoint x="810" y="941" />
            </Array>
          </mxGeometry>
        </mxCell>
        <mxCell id="JHE3BNfb4ep6dm02MJn9-88" value="Sheets" style="swimlane;fontStyle=0;childLayout=stackLayout;horizontal=1;startSize=30;horizontalStack=0;resizeParent=1;resizeParentMax=0;resizeLast=0;collapsible=1;marginBottom=0;whiteSpace=wrap;html=1;fontSize=18;" vertex="1" parent="1">
          <mxGeometry x="570" y="935" width="140" height="150" as="geometry" />
        </mxCell>
        <mxCell id="JHE3BNfb4ep6dm02MJn9-106" value="id" style="text;strokeColor=none;fillColor=none;align=left;verticalAlign=middle;spacingLeft=4;spacingRight=4;overflow=hidden;points=[[0,0.5],[1,0.5]];portConstraint=eastwest;rotatable=0;whiteSpace=wrap;html=1;fontSize=18;" vertex="1" parent="JHE3BNfb4ep6dm02MJn9-88">
          <mxGeometry y="30" width="140" height="30" as="geometry" />
        </mxCell>
        <mxCell id="JHE3BNfb4ep6dm02MJn9-89" value="doctor_id" style="text;strokeColor=none;fillColor=none;align=left;verticalAlign=middle;spacingLeft=4;spacingRight=4;overflow=hidden;points=[[0,0.5],[1,0.5]];portConstraint=eastwest;rotatable=0;whiteSpace=wrap;html=1;fontSize=18;" vertex="1" parent="JHE3BNfb4ep6dm02MJn9-88">
          <mxGeometry y="60" width="140" height="30" as="geometry" />
        </mxCell>
        <mxCell id="JHE3BNfb4ep6dm02MJn9-90" value="Patient name" style="text;strokeColor=none;fillColor=none;align=left;verticalAlign=middle;spacingLeft=4;spacingRight=4;overflow=hidden;points=[[0,0.5],[1,0.5]];portConstraint=eastwest;rotatable=0;whiteSpace=wrap;html=1;fontSize=18;" vertex="1" parent="JHE3BNfb4ep6dm02MJn9-88">
          <mxGeometry y="90" width="140" height="30" as="geometry" />
        </mxCell>
        <mxCell id="JHE3BNfb4ep6dm02MJn9-91" value="gender" style="text;strokeColor=none;fillColor=none;align=left;verticalAlign=middle;spacingLeft=4;spacingRight=4;overflow=hidden;points=[[0,0.5],[1,0.5]];portConstraint=eastwest;rotatable=0;whiteSpace=wrap;html=1;fontSize=18;" vertex="1" parent="JHE3BNfb4ep6dm02MJn9-88">
          <mxGeometry y="120" width="140" height="30" as="geometry" />
        </mxCell>
        <mxCell id="JHE3BNfb4ep6dm02MJn9-107" style="edgeStyle=orthogonalEdgeStyle;rounded=0;orthogonalLoop=1;jettySize=auto;html=1;entryX=0;entryY=0.5;entryDx=0;entryDy=0;fontSize=18;" edge="1" parent="1" source="JHE3BNfb4ep6dm02MJn9-106" target="JHE3BNfb4ep6dm02MJn9-70">
          <mxGeometry relative="1" as="geometry" />
        </mxCell>
        <mxCell id="JHE3BNfb4ep6dm02MJn9-111" style="edgeStyle=orthogonalEdgeStyle;rounded=0;orthogonalLoop=1;jettySize=auto;html=1;entryX=0;entryY=0.5;entryDx=0;entryDy=0;fontSize=18;" edge="1" parent="1" source="JHE3BNfb4ep6dm02MJn9-108" target="JHE3BNfb4ep6dm02MJn9-109">
          <mxGeometry relative="1" as="geometry">
            <Array as="points">
              <mxPoint x="1070" y="965" />
              <mxPoint x="1070" y="590" />
              <mxPoint x="1030" y="590" />
              <mxPoint x="1030" y="215" />
            </Array>
          </mxGeometry>
        </mxCell>
        <mxCell id="JHE3BNfb4ep6dm02MJn9-116" style="edgeStyle=orthogonalEdgeStyle;rounded=0;orthogonalLoop=1;jettySize=auto;html=1;fontSize=18;" edge="1" parent="1" source="JHE3BNfb4ep6dm02MJn9-108" target="JHE3BNfb4ep6dm02MJn9-112">
          <mxGeometry relative="1" as="geometry">
            <Array as="points">
              <mxPoint x="1330" y="965" />
              <mxPoint x="1330" y="235" />
            </Array>
          </mxGeometry>
        </mxCell>
        <mxCell id="JHE3BNfb4ep6dm02MJn9-119" style="edgeStyle=orthogonalEdgeStyle;rounded=0;orthogonalLoop=1;jettySize=auto;html=1;entryX=0;entryY=0.5;entryDx=0;entryDy=0;fontSize=18;" edge="1" parent="1" source="JHE3BNfb4ep6dm02MJn9-108" target="JHE3BNfb4ep6dm02MJn9-118">
          <mxGeometry relative="1" as="geometry">
            <mxPoint x="1640" y="350" as="targetPoint" />
            <Array as="points">
              <mxPoint x="1730" y="965" />
              <mxPoint x="1730" y="245" />
            </Array>
          </mxGeometry>
        </mxCell>
        <mxCell id="JHE3BNfb4ep6dm02MJn9-128" style="edgeStyle=orthogonalEdgeStyle;rounded=0;orthogonalLoop=1;jettySize=auto;html=1;entryX=1;entryY=0.5;entryDx=0;entryDy=0;fontSize=18;" edge="1" parent="1" source="JHE3BNfb4ep6dm02MJn9-108" target="JHE3BNfb4ep6dm02MJn9-122">
          <mxGeometry relative="1" as="geometry">
            <Array as="points">
              <mxPoint x="890" y="965" />
              <mxPoint x="890" y="1140" />
              <mxPoint x="1140" y="1140" />
              <mxPoint x="1140" y="1315" />
            </Array>
          </mxGeometry>
        </mxCell>
        <mxCell id="JHE3BNfb4ep6dm02MJn9-130" style="edgeStyle=orthogonalEdgeStyle;rounded=0;orthogonalLoop=1;jettySize=auto;html=1;fontSize=18;" edge="1" parent="1" source="JHE3BNfb4ep6dm02MJn9-122" target="JHE3BNfb4ep6dm02MJn9-124">
          <mxGeometry relative="1" as="geometry" />
        </mxCell>
        <mxCell id="JHE3BNfb4ep6dm02MJn9-131" style="edgeStyle=orthogonalEdgeStyle;rounded=0;orthogonalLoop=1;jettySize=auto;html=1;fontSize=18;" edge="1" parent="1" source="JHE3BNfb4ep6dm02MJn9-124" target="JHE3BNfb4ep6dm02MJn9-125">
          <mxGeometry relative="1" as="geometry" />
        </mxCell>
        <mxCell id="JHE3BNfb4ep6dm02MJn9-132" value="sheets_file" style="swimlane;fontStyle=0;childLayout=stackLayout;horizontal=1;startSize=30;horizontalStack=0;resizeParent=1;resizeParentMax=0;resizeLast=0;collapsible=1;marginBottom=0;whiteSpace=wrap;html=1;fontSize=18;" vertex="1" parent="1">
          <mxGeometry x="2310" y="720" width="140" height="150" as="geometry" />
        </mxCell>
        <mxCell id="JHE3BNfb4ep6dm02MJn9-133" value="id" style="text;strokeColor=none;fillColor=none;align=left;verticalAlign=middle;spacingLeft=4;spacingRight=4;overflow=hidden;points=[[0,0.5],[1,0.5]];portConstraint=eastwest;rotatable=0;whiteSpace=wrap;html=1;fontSize=18;" vertex="1" parent="JHE3BNfb4ep6dm02MJn9-132">
          <mxGeometry y="30" width="140" height="30" as="geometry" />
        </mxCell>
        <mxCell id="JHE3BNfb4ep6dm02MJn9-134" value="type" style="text;strokeColor=none;fillColor=none;align=left;verticalAlign=middle;spacingLeft=4;spacingRight=4;overflow=hidden;points=[[0,0.5],[1,0.5]];portConstraint=eastwest;rotatable=0;whiteSpace=wrap;html=1;fontSize=18;" vertex="1" parent="JHE3BNfb4ep6dm02MJn9-132">
          <mxGeometry y="60" width="140" height="30" as="geometry" />
        </mxCell>
        <mxCell id="JHE3BNfb4ep6dm02MJn9-136" value="type_id" style="text;strokeColor=none;fillColor=none;align=left;verticalAlign=middle;spacingLeft=4;spacingRight=4;overflow=hidden;points=[[0,0.5],[1,0.5]];portConstraint=eastwest;rotatable=0;whiteSpace=wrap;html=1;fontSize=18;" vertex="1" parent="JHE3BNfb4ep6dm02MJn9-132">
          <mxGeometry y="90" width="140" height="30" as="geometry" />
        </mxCell>
        <mxCell id="JHE3BNfb4ep6dm02MJn9-135" value="file" style="text;strokeColor=none;fillColor=none;align=left;verticalAlign=middle;spacingLeft=4;spacingRight=4;overflow=hidden;points=[[0,0.5],[1,0.5]];portConstraint=eastwest;rotatable=0;whiteSpace=wrap;html=1;fontSize=18;" vertex="1" parent="JHE3BNfb4ep6dm02MJn9-132">
          <mxGeometry y="120" width="140" height="30" as="geometry" />
        </mxCell>
        <mxCell id="JHE3BNfb4ep6dm02MJn9-138" style="edgeStyle=orthogonalEdgeStyle;rounded=0;orthogonalLoop=1;jettySize=auto;html=1;fontSize=18;" edge="1" parent="1" source="JHE3BNfb4ep6dm02MJn9-136" target="JHE3BNfb4ep6dm02MJn9-117">
          <mxGeometry relative="1" as="geometry" />
        </mxCell>
        <mxCell id="JHE3BNfb4ep6dm02MJn9-139" style="edgeStyle=orthogonalEdgeStyle;rounded=0;orthogonalLoop=1;jettySize=auto;html=1;entryX=1;entryY=0.5;entryDx=0;entryDy=0;fontSize=18;" edge="1" parent="1" source="JHE3BNfb4ep6dm02MJn9-136" target="JHE3BNfb4ep6dm02MJn9-113">
          <mxGeometry relative="1" as="geometry">
            <Array as="points">
              <mxPoint x="2470" y="825" />
              <mxPoint x="2470" y="100" />
              <mxPoint x="1680" y="100" />
              <mxPoint x="1680" y="205" />
            </Array>
          </mxGeometry>
        </mxCell>
        <mxCell id="JHE3BNfb4ep6dm02MJn9-140" style="edgeStyle=orthogonalEdgeStyle;rounded=0;orthogonalLoop=1;jettySize=auto;html=1;entryX=1;entryY=0.5;entryDx=0;entryDy=0;fontSize=18;" edge="1" parent="1" source="JHE3BNfb4ep6dm02MJn9-136" target="JHE3BNfb4ep6dm02MJn9-109">
          <mxGeometry relative="1" as="geometry">
            <Array as="points">
              <mxPoint x="2470" y="825" />
              <mxPoint x="2470" y="100" />
              <mxPoint x="1250" y="100" />
              <mxPoint x="1250" y="215" />
            </Array>
          </mxGeometry>
        </mxCell>
        <mxCell id="JHE3BNfb4ep6dm02MJn9-141" style="edgeStyle=orthogonalEdgeStyle;rounded=0;orthogonalLoop=1;jettySize=auto;html=1;fontSize=18;" edge="1" parent="1" source="JHE3BNfb4ep6dm02MJn9-136" target="JHE3BNfb4ep6dm02MJn9-121">
          <mxGeometry relative="1" as="geometry">
            <Array as="points">
              <mxPoint x="2250" y="825" />
              <mxPoint x="2250" y="1500" />
              <mxPoint x="890" y="1500" />
              <mxPoint x="890" y="1285" />
            </Array>
          </mxGeometry>
        </mxCell>
        <mxCell id="JHE3BNfb4ep6dm02MJn9-142" style="edgeStyle=orthogonalEdgeStyle;rounded=0;orthogonalLoop=1;jettySize=auto;html=1;entryX=1;entryY=0.5;entryDx=0;entryDy=0;fontSize=18;" edge="1" parent="1" source="JHE3BNfb4ep6dm02MJn9-136" target="JHE3BNfb4ep6dm02MJn9-126">
          <mxGeometry relative="1" as="geometry">
            <Array as="points">
              <mxPoint x="2250" y="825" />
              <mxPoint x="2250" y="1285" />
            </Array>
          </mxGeometry>
        </mxCell>
        <mxCell id="JHE3BNfb4ep6dm02MJn9-147" style="edgeStyle=orthogonalEdgeStyle;rounded=0;orthogonalLoop=1;jettySize=auto;html=1;entryX=0.5;entryY=0;entryDx=0;entryDy=0;fontSize=18;" edge="1" parent="1" source="JHE3BNfb4ep6dm02MJn9-146" target="JHE3BNfb4ep6dm02MJn9-3">
          <mxGeometry relative="1" as="geometry" />
        </mxCell>
        <mxCell id="JHE3BNfb4ep6dm02MJn9-146" value="&lt;ul style=&quot;font-size: 18px;&quot;&gt;&lt;li style=&quot;font-size: 18px;&quot;&gt;list of drags&lt;/li&gt;&lt;li style=&quot;font-size: 18px;&quot;&gt;list of labtest&lt;/li&gt;&lt;/ul&gt;" style="shape=process;whiteSpace=wrap;html=1;backgroundOutline=1;align=left;fontSize=18;" vertex="1" parent="1">
          <mxGeometry x="90" y="160" width="240" height="60" as="geometry" />
        </mxCell>
        <mxCell id="JHE3BNfb4ep6dm02MJn9-153" value="&lt;h1&gt;Create Sheets&lt;/h1&gt;" style="text;html=1;strokeColor=none;fillColor=none;spacing=5;spacingTop=-20;whiteSpace=wrap;overflow=hidden;rounded=0;" vertex="1" parent="1">
          <mxGeometry x="1610" y="20" width="190" height="60" as="geometry" />
        </mxCell>
        <mxCell id="JHE3BNfb4ep6dm02MJn9-155" value="&lt;h1&gt;Send Data&lt;/h1&gt;" style="text;html=1;strokeColor=none;fillColor=none;spacing=5;spacingTop=-20;whiteSpace=wrap;overflow=hidden;rounded=0;" vertex="1" parent="1">
          <mxGeometry x="2660" y="10" width="190" height="40" as="geometry" />
        </mxCell>
        <mxCell id="JHE3BNfb4ep6dm02MJn9-156" value="" style="endArrow=none;html=1;rounded=0;fontSize=20;strokeWidth=13;fillColor=#f5f5f5;strokeColor=#666666;" edge="1" parent="1">
          <mxGeometry width="50" height="50" relative="1" as="geometry">
            <mxPoint x="2550" y="2190" as="sourcePoint" />
            <mxPoint x="2550" as="targetPoint" />
          </mxGeometry>
        </mxCell>
        <mxCell id="JHE3BNfb4ep6dm02MJn9-194" style="edgeStyle=orthogonalEdgeStyle;rounded=0;orthogonalLoop=1;jettySize=auto;html=1;entryX=0.5;entryY=0;entryDx=0;entryDy=0;" edge="1" parent="1" source="JHE3BNfb4ep6dm02MJn9-158" target="JHE3BNfb4ep6dm02MJn9-171">
          <mxGeometry relative="1" as="geometry" />
        </mxCell>
        <mxCell id="JHE3BNfb4ep6dm02MJn9-158" value="Send" style="shape=process;whiteSpace=wrap;html=1;backgroundOutline=1;fontSize=18;" vertex="1" parent="1">
          <mxGeometry x="2910" y="500" width="120" height="60" as="geometry" />
        </mxCell>
        <mxCell id="JHE3BNfb4ep6dm02MJn9-191" style="edgeStyle=orthogonalEdgeStyle;rounded=0;orthogonalLoop=1;jettySize=auto;html=1;entryX=0.5;entryY=0;entryDx=0;entryDy=0;" edge="1" parent="1" source="JHE3BNfb4ep6dm02MJn9-159" target="JHE3BNfb4ep6dm02MJn9-190">
          <mxGeometry relative="1" as="geometry" />
        </mxCell>
        <mxCell id="JHE3BNfb4ep6dm02MJn9-159" value="Send Data" style="rounded=0;whiteSpace=wrap;html=1;fontSize=18;" vertex="1" parent="1">
          <mxGeometry x="2910" y="40" width="120" height="60" as="geometry" />
        </mxCell>
        <mxCell id="JHE3BNfb4ep6dm02MJn9-171" value="Send Table" style="swimlane;fontStyle=0;childLayout=stackLayout;horizontal=1;startSize=30;horizontalStack=0;resizeParent=1;resizeParentMax=0;resizeLast=0;collapsible=1;marginBottom=0;whiteSpace=wrap;html=1;fontSize=18;" vertex="1" parent="1">
          <mxGeometry x="2900" y="670" width="140" height="180" as="geometry" />
        </mxCell>
        <mxCell id="JHE3BNfb4ep6dm02MJn9-172" value="id" style="text;strokeColor=none;fillColor=none;align=left;verticalAlign=middle;spacingLeft=4;spacingRight=4;overflow=hidden;points=[[0,0.5],[1,0.5]];portConstraint=eastwest;rotatable=0;whiteSpace=wrap;html=1;fontSize=18;" vertex="1" parent="JHE3BNfb4ep6dm02MJn9-171">
          <mxGeometry y="30" width="140" height="30" as="geometry" />
        </mxCell>
        <mxCell id="JHE3BNfb4ep6dm02MJn9-173" value="sender_id" style="text;strokeColor=none;fillColor=none;align=left;verticalAlign=middle;spacingLeft=4;spacingRight=4;overflow=hidden;points=[[0,0.5],[1,0.5]];portConstraint=eastwest;rotatable=0;whiteSpace=wrap;html=1;fontSize=18;" vertex="1" parent="JHE3BNfb4ep6dm02MJn9-171">
          <mxGeometry y="60" width="140" height="30" as="geometry" />
        </mxCell>
        <mxCell id="JHE3BNfb4ep6dm02MJn9-188" value="receive_id" style="text;strokeColor=none;fillColor=none;align=left;verticalAlign=middle;spacingLeft=4;spacingRight=4;overflow=hidden;points=[[0,0.5],[1,0.5]];portConstraint=eastwest;rotatable=0;whiteSpace=wrap;html=1;fontSize=18;" vertex="1" parent="JHE3BNfb4ep6dm02MJn9-171">
          <mxGeometry y="90" width="140" height="30" as="geometry" />
        </mxCell>
        <mxCell id="JHE3BNfb4ep6dm02MJn9-189" value="type" style="text;strokeColor=none;fillColor=none;align=left;verticalAlign=middle;spacingLeft=4;spacingRight=4;overflow=hidden;points=[[0,0.5],[1,0.5]];portConstraint=eastwest;rotatable=0;whiteSpace=wrap;html=1;fontSize=18;" vertex="1" parent="JHE3BNfb4ep6dm02MJn9-171">
          <mxGeometry y="120" width="140" height="30" as="geometry" />
        </mxCell>
        <mxCell id="JHE3BNfb4ep6dm02MJn9-174" value="type_id" style="text;strokeColor=none;fillColor=none;align=left;verticalAlign=middle;spacingLeft=4;spacingRight=4;overflow=hidden;points=[[0,0.5],[1,0.5]];portConstraint=eastwest;rotatable=0;whiteSpace=wrap;html=1;fontSize=18;" vertex="1" parent="JHE3BNfb4ep6dm02MJn9-171">
          <mxGeometry y="150" width="140" height="30" as="geometry" />
        </mxCell>
        <mxCell id="JHE3BNfb4ep6dm02MJn9-193" style="edgeStyle=orthogonalEdgeStyle;rounded=0;orthogonalLoop=1;jettySize=auto;html=1;entryX=0.5;entryY=0;entryDx=0;entryDy=0;" edge="1" parent="1" source="JHE3BNfb4ep6dm02MJn9-190" target="JHE3BNfb4ep6dm02MJn9-158">
          <mxGeometry relative="1" as="geometry" />
        </mxCell>
        <mxCell id="JHE3BNfb4ep6dm02MJn9-190" value="&lt;div&gt;Search&amp;nbsp;&lt;/div&gt;&lt;div&gt;&lt;ol&gt;&lt;li&gt;if {RX} ? return Pharmacy account type&lt;/li&gt;&lt;li&gt;if {Radiology} ? return Radiology account type&lt;/li&gt;&lt;li&gt;if send {LAB}&amp;nbsp; ? return Lab Account type&amp;nbsp;&lt;/li&gt;&lt;li&gt;if&amp;nbsp; {ultrasound} ? return doctor account type&lt;/li&gt;&lt;li style=&quot;border-color: var(--border-color);&quot;&gt;if&amp;nbsp; {other test} ? return doctor account type&lt;/li&gt;&lt;li&gt;if {all} &amp;amp;&amp;amp; doctor ? return user account type&lt;/li&gt;&lt;li style=&quot;border-color: var(--border-color);&quot;&gt;if {all} &amp;amp;&amp;amp; user ? return doctor account type&lt;/li&gt;&lt;/ol&gt;&lt;/div&gt;" style="shape=process;whiteSpace=wrap;html=1;backgroundOutline=1;rounded=0;align=center;fontSize=18;" vertex="1" parent="1">
          <mxGeometry x="2625" y="180" width="690" height="220" as="geometry" />
        </mxCell>
        <mxCell id="JHE3BNfb4ep6dm02MJn9-195" value="" style="endArrow=none;html=1;rounded=0;fontSize=20;strokeWidth=13;fillColor=#f5f5f5;strokeColor=#666666;" edge="1" parent="1">
          <mxGeometry width="50" height="50" relative="1" as="geometry">
            <mxPoint x="3390" y="2190" as="sourcePoint" />
            <mxPoint x="3390" as="targetPoint" />
          </mxGeometry>
        </mxCell>
        <mxCell id="JHE3BNfb4ep6dm02MJn9-196" value="&lt;h1&gt;Receive Data From All except Doctor&lt;/h1&gt;" style="text;html=1;strokeColor=none;fillColor=none;spacing=5;spacingTop=-20;whiteSpace=wrap;overflow=hidden;rounded=0;" vertex="1" parent="1">
          <mxGeometry x="3520" y="10" width="440" height="40" as="geometry" />
        </mxCell>
        <mxCell id="JHE3BNfb4ep6dm02MJn9-207" style="edgeStyle=orthogonalEdgeStyle;rounded=0;orthogonalLoop=1;jettySize=auto;html=1;entryX=0.5;entryY=0;entryDx=0;entryDy=0;" edge="1" parent="1" source="JHE3BNfb4ep6dm02MJn9-197" target="JHE3BNfb4ep6dm02MJn9-206">
          <mxGeometry relative="1" as="geometry" />
        </mxCell>
        <mxCell id="JHE3BNfb4ep6dm02MJn9-197" value="Get Data" style="rounded=0;whiteSpace=wrap;html=1;fontSize=18;" vertex="1" parent="1">
          <mxGeometry x="3640" y="60" width="120" height="60" as="geometry" />
        </mxCell>
        <mxCell id="JHE3BNfb4ep6dm02MJn9-212" style="edgeStyle=orthogonalEdgeStyle;rounded=0;orthogonalLoop=1;jettySize=auto;html=1;entryX=0.5;entryY=0;entryDx=0;entryDy=0;fontSize=16;" edge="1" parent="1" source="JHE3BNfb4ep6dm02MJn9-206" target="JHE3BNfb4ep6dm02MJn9-211">
          <mxGeometry relative="1" as="geometry" />
        </mxCell>
        <mxCell id="JHE3BNfb4ep6dm02MJn9-206" value="Auth Token" style="shape=hexagon;perimeter=hexagonPerimeter2;whiteSpace=wrap;html=1;fixedSize=1;fontSize=16;" vertex="1" parent="1">
          <mxGeometry x="3640" y="200" width="120" height="80" as="geometry" />
        </mxCell>
        <mxCell id="JHE3BNfb4ep6dm02MJn9-211" value="" style="shape=process;whiteSpace=wrap;html=1;backgroundOutline=1;fontSize=16;" vertex="1" parent="1">
          <mxGeometry x="3540" y="380" width="320" height="120" as="geometry" />
        </mxCell>
      </root>
    </mxGraphModel>
  </diagram>
</mxfile>
